:SAMPLES-PER-SECOND 30
:FULLY-SPECIFIED
:DEGREES
439
root  -42.9974 37.8015 28.6893 -160.697 -87.5945 -159.839
RightUpLeg  -70.1175 -14.6775 12.365
RightLeg  32.9269 -5.76758 -4.25895
RightFoot  -1.55103 0.152923 -1.90921
RightToes  0.00048216 0.542163 -0.142577
Spine  75.0138 -3.84725 5.11295
Spine1  6.78954 2.00344 -6.38128
HEad  -29.0097 -5.98295 5.28098
LeftShoulder1  6.18493 -28.5047 -12.0293
LeftArm  -93.3981 -49.0535 15.1729
LeftForeArm  10.4381 -32.2797 -6.52991
LeftHand  -0.25398 0.0180481 5.50724
RightShoulder  1.99542 11.976 5.08645
RightArm  -76.9793 59.2533 -21.5537
RightForeArm  -16.8983 19.5113 4.83262
RightHand  -0.884288 9.93342 -7.18554
LeftUpLeg  -74.566 21.4491 -32.9763
LeftLeg  32.7655 -5.0848 -3.16347
LeftFoot  -2.96311 -1.13548 15.6424
LeftToes  1.06246e-005 4.65855e-005 -8.18505e-006
440
root  -43.1081 37.8206 28.6947 -158.484 -87.7303 -162.09
RightUpLeg  -69.7496 -14.3355 11.5679
RightLeg  33.0696 -6.38677 -4.70946
RightFoot  -1.77378 0.139038 -1.80418
RightToes  0.00048216 0.542163 -0.142577
Spine  74.7701 -3.8103 4.98151
Spine1  7.07122 1.89408 -6.28805
HEad  -29.3825 -5.61698 5.77194
LeftShoulder1  6.38947 -28.3258 -12.8555
LeftArm  -91.412 -49.0576 15.0451
LeftForeArm  9.17293 -32.8504 -6.7507
LeftHand  -0.25398 0.0180481 5.50724
RightShoulder  1.99679 12.1288 4.9535
RightArm  -74.9907 59.3374 -20.5415
RightForeArm  -17.0146 19.1256 4.80683
RightHand  -0.839608 9.43936 -7.05378
LeftUpLeg  -74.3455 21.4405 -32.9276
LeftLeg  32.9061 -5.10069 -3.19236
LeftFoot  -3.00378 -1.10561 15.3188
LeftToes  1.06246e-005 4.65855e-005 -8.18505e-006
441
root  -43.1903 37.819 28.7044 -157.151 -87.8008 -163.529
RightUpLeg  -69.4979 -14.1529 11.013
RightLeg  33.3068 -6.67191 -4.94813
RightFoot  -1.97855 0.112864 -1.54105
RightToes  0.00048216 0.542163 -0.142577
Spine  74.6692 -3.80758 5.02144
Spine1  7.0623 1.94496 -6.36551
HEad  -30.0627 -6.09883 5.84192
LeftShoulder1  6.23034 -27.7673 -12.7009
LeftArm  -90.7536 -49.9729 13.9296
LeftForeArm  10.6578 -33.0579 -6.71898
LeftHand  -0.25398 0.0180481 5.50724
RightShoulder  2.06926 12.3702 5.24789
RightArm  -73.2822 59.1376 -19.5551
RightForeArm  -16.4121 19.2276 4.85647
RightHand  -0.865716 9.32479 -7.30675
LeftUpLeg  -74.1569 21.4441 -32.8155
LeftLeg  33.1235 -4.97817 -3.1348
LeftFoot  -3.19107 -1.07199 15.2211
LeftToes  1.06246e-005 4.65855e-005 -8.18505e-006
442
root  -43.2495 37.8169 28.7145 -156.72 -87.8679 -164.255
RightUpLeg  -69.1892 -14.1497 10.6651
RightLeg  33.5966 -6.78736 -5.08111
RightFoot  -2.18166 0.0893826 -1.30083
RightToes  0.00048216 0.542163 -0.142577
Spine  74.7236 -4.00649 5.19345
Spine1  7.23622 1.9859 -6.71764
HEad  -31.0765 -6.7368 5.74917
LeftShoulder1  5.91115 -27.235 -11.9548
LeftArm  -90.8679 -51.067 13.0184
LeftForeArm  13.9166 -32.8765 -6.48261
LeftHand  -0.25398 0.0180481 5.50724
RightShoulder  2.15405 12.7448 5.49738
RightArm  -72.7393 58.8966 -19.152
RightForeArm  -16.183 19.153 4.83028
RightHand  -0.995504 9.57631 -8.19672
LeftUpLeg  -73.7773 21.4999 -32.5789
LeftLeg  33.2999 -4.79372 -3.02746
LeftFoot  -3.47766 -1.03837 15.3146
LeftToes  1.06246e-005 4.65855e-005 -8.18505e-006
443
root  -43.278 37.8034 28.7094 -155.163 -88.0138 -165.944
RightUpLeg  -69.1453 -14.192 10.4857
RightLeg  33.9344 -6.97105 -5.27383
RightFoot  -2.34558 0.0926673 -1.3803
RightToes  0.00048216 0.542163 -0.142577
Spine  74.4525 -4.30669 5.37911
Spine1  7.87441 1.92117 -7.10995
HEad  -32.1364 -6.84189 6.05372
LeftShoulder1  5.70528 -26.9979 -11.3821
LeftArm  -90.6713 -51.6601 13.5775
LeftForeArm  15.4849 -32.4391 -6.27927
LeftHand  -0.25398 0.0180481 5.50724
RightShoulder  2.17234 13.0917 5.30748
RightArm  -73.6421 58.8496 -18.7113
RightForeArm  -16.7607 19.0463 4.75668
RightHand  -1.25352 10.127 -9.84091
LeftUpLeg  -73.5802 21.3232 -32.3209
LeftLeg  33.4957 -4.60366 -2.91678
LeftFoot  -3.54912 -1.02833 15.3134
LeftToes  1.06246e-005 4.65855e-005 -8.18505e-006
444
root  -43.2687 37.7647 28.6908 -147.649 -88.1136 -173.417
RightUpLeg  -69.4125 -14.1803 10.1192
RightLeg  34.4142 -7.16523 -5.5049
RightFoot  -2.53879 0.0894853 -1.38488
RightToes  0.00048216 0.542163 -0.142577
Spine  73.8857 -4.44263 5.45758
Spine1  8.6538 1.86725 -7.24971
HEad  -32.9194 -6.67327 6.66839
LeftShoulder1  5.54258 -26.684 -11.0084
LeftArm  -90.0856 -52.4267 14.2316
LeftForeArm  14.776 -32.2154 -6.26346
LeftHand  -0.25398 0.0180481 5.50724
RightShoulder  2.16373 13.2692 5.09195
RightArm  -74.7344 58.8227 -17.6888
RightForeArm  -17.8561 19.7174 4.88938
RightHand  -1.71782 10.9829 -12.608
LeftUpLeg  -73.6735 20.9897 -32.3262
LeftLeg  33.8137 -4.43243 -2.83144
LeftFoot  -3.44771 -1.02946 15.143
LeftToes  1.06246e-005 4.65855e-005 -8.18505e-006
445
root  -43.2181 37.7086 28.6714 -135.34 -88.0859 174.127
RightUpLeg  -69.6468 -14.1133 9.38626
RightLeg  35.0983 -7.35619 -5.78128
RightFoot  -2.77669 0.05771 -1.02188
RightToes  0.00048216 0.542163 -0.142577
Spine  73.4871 -4.40007 5.55681
Spine1  9.01781 1.92926 -7.06769
HEad  -33.3451 -6.80185 6.97168
LeftShoulder1  5.36143 -26.0446 -10.7834
LeftArm  -90.0067 -54.2794 13.5228
LeftForeArm  14.8083 -32.0848 -6.22817
LeftHand  -0.25398 0.0180481 5.50724
RightShoulder  2.24206 13.3742 5.52381
RightArm  -74.9869 58.7173 -16.9954
RightForeArm  -18.6601 20.6885 5.17341
RightHand  -2.3309 12.0519 -15.9081
LeftUpLeg  -73.6595 20.7514 -32.4918
LeftLeg  34.1834 -4.23835 -2.73241
LeftFoot  -3.42415 -1.01279 14.8867
LeftToes  1.06246e-005 4.65855e-005 -8.18505e-006
446
root  -43.1176 37.6381 28.6498 -125.315 -88.1688 163.756
RightUpLeg  -69.7967 -13.9335 8.63486
RightLeg  35.9462 -7.83316 -6.32008
RightFoot  -2.90769 0.0398991 -0.809298
RightToes  0.00048216 0.542163 -0.142577
Spine  73.1474 -4.44819 5.94771
Spine1  9.21725 2.07649 -6.77005
HEad  -33.5612 -7.15049 6.78985
LeftShoulder1  5.27537 -25.4882 -10.8495
LeftArm  -90.8268 -56.6383 12.8674
LeftForeArm  16.222 -30.9433 -5.86509
LeftHand  -0.25398 0.0180481 5.50724
RightShoulder  2.36306 13.4183 6.29075
RightArm  -75.7094 59.0015 -17.8636
RightForeArm  -18.2022 20.0198 4.94305
RightHand  -2.81 13.1359 -17.9743
LeftUpLeg  -73.4538 20.4747 -32.3414
LeftLeg  34.5122 -3.95478 -2.55977
LeftFoot  -3.46991 -0.991283 14.6127
LeftToes  1.06246e-005 4.65855e-005 -8.18505e-006
447
root  -42.9531 37.5609 28.6232 -122.585 -88.4683 160.568
RightUpLeg  -69.8038 -13.5076 8.14679
RightLeg  36.6932 -8.6244 -7.10273
RightFoot  -2.80449 0.0627862 -1.09503
RightToes  0.00048216 0.542163 -0.142577
Spine  72.4887 -4.67024 6.53558
Spine1  9.81774 2.21977 -6.65974
HEad  -33.516 -7.30026 6.50767
LeftShoulder1  5.28333 -25.3289 -10.9934
LeftArm  -92.5051 -58.346 14.3491
LeftForeArm  17.0753 -28.0997 -5.18528
LeftHand  -0.25398 0.0180481 5.50724
RightShoulder  2.3617 13.2749 6.41505
RightArm  -78.0456 60.1631 -19.9455
RightForeArm  -16.817 16.6951 3.69907
RightHand  -2.94399 14.0567 -17.9366
LeftUpLeg  -73.2204 20.1389 -31.6925
LeftLeg  34.769 -3.56878 -2.29924
LeftFoot  -3.48476 -0.980819 14.5053
LeftToes  1.06246e-005 4.65855e-005 -8.18505e-006
448
root  -42.713 37.5033 28.6046 -134.015 -88.7222 171.172
RightUpLeg  -69.283 -12.9322 7.87854
RightLeg  36.9895 -9.24176 -7.66024
RightFoot  -2.54671 0.0860198 -1.34458
RightToes  0.00048216 0.542163 -0.142577
Spine  71.7043 -4.92185 6.96811
Spine1  10.6011 2.26664 -6.87774
HEad  -32.916 -7.12814 6.31721
LeftShoulder1  5.19596 -25.2249 -10.7318
LeftArm  -94.6062 -59.55 17.4817
LeftForeArm  18.427 -23.8458 -3.88602
LeftHand  -0.25398 0.0180481 5.50724
RightShoulder  2.19143 13.0536 5.4703
RightArm  -80.1921 62.0255 -21.8673
RightForeArm  -16.4265 11.605 1.80016
RightHand  -2.82974 14.3415 -17.027
LeftUpLeg  -72.7592 20.0741 -30.7249
LeftLeg  34.863 -3.0692 -1.935
LeftFoot  -3.54065 -0.993262 14.7947
LeftToes  1.06246e-005 4.65855e-005 -8.18505e-006
449
root  -42.4011 37.5055 28.6036 -159.838 -88.5509 -164.397
RightUpLeg  -67.9506 -12.4037 7.89998
RightLeg  36.5194 -9.38844 -7.6506
RightFoot  -2.08063 0.0948639 -1.34631
RightToes  0.00048216 0.542163 -0.142577
Spine  70.9563 -5.05922 7.10233
Spine1  11.3593 2.3245 -7.43283
HEad  -31.9846 -6.74085 6.09301
LeftShoulder1  4.87185 -24.9048 -9.70219
LeftArm  -95.7003 -61.5147 20.777
LeftForeArm  23.1838 -18.7871 -0.271713
LeftHand  -0.25398 0.0180481 5.50724
RightShoulder  1.9012 12.8918 3.6212
RightArm  -81.5099 64.1264 -23.3888
RightForeArm  -16.6225 5.69824 0.363795
RightHand  -2.59291 13.0538 -16.716
LeftUpLeg  -71.7932 20.5773 -29.6192
LeftLeg  34.5768 -2.48576 -1.48119
LeftFoot  -3.58903 -1.02654 15.3701
LeftToes  1.06246e-005 4.65855e-005 -8.18505e-006
450
root  -42.043 37.6077 28.6024 -174.838 -87.8366 -151.248
RightUpLeg  -65.862 -12.0813 8.14976
RightLeg  35.1629 -9.22865 -7.17889
RightFoot  -1.1608 0.152238 -1.78611
RightToes  0.00048216 0.542163 -0.142577
Spine  70.2191 -4.92353 6.89456
Spine1  12.0251 2.52101 -8.02425
HEad  -31.2076 -6.37523 5.74056
LeftShoulder1  4.61677 -24.929 -8.69416
LeftArm  -96.0736 -64.3148 22.9544
LeftForeArm  33.7291 -14.3476 4.95626
LeftHand  -0.25398 0.0180481 5.50724
RightShoulder  1.5797 12.7255 1.50925
RightArm  -82.0388 66.3287 -24.9992
RightForeArm  -16.019 -0.591718 -0.476148
RightHand  -2.15861 9.95341 -16.6846
LeftUpLeg  -70.1981 21.6802 -28.6946
LeftLeg  33.5729 -2.03705 -1.09671
LeftFoot  -3.24214 -1.10725 15.8072
LeftToes  1.06246e-005 4.65855e-005 -8.18505e-006
451
root  -41.6659 37.8003 28.5703 -175.688 -87.1025 -152.389
RightUpLeg  -63.3705 -12.0985 8.39163
RightLeg  33.1237 -8.83378 -6.40697
RightFoot  0.0975364 0.268783 -2.676
RightToes  0.00048216 0.542163 -0.142577
Spine  69.3374 -4.41644 6.43556
Spine1  12.4003 2.8017 -8.1281
HEad  -30.6899 -6.40022 5.25013
LeftShoulder1  4.8012 -25.7367 -8.8791
LeftArm  -97.0257 -66.2186 21.3226
LeftForeArm  48.1831 -12.8474 7.46564
LeftHand  -0.25398 0.0180481 5.50724
RightShoulder  1.36693 12.382 0.230375
RightArm  -81.7719 68.6358 -25.4214
RightForeArm  -13.4917 -5.29592 -0.878721
RightHand  -1.62003 6.55466 -16.0437
LeftUpLeg  -68.1265 23.0543 -28.1528
LeftLeg  31.8059 -1.94104 -0.943062
LeftFoot  -2.25382 -1.25865 15.901
LeftToes  1.06246e-005 4.65855e-005 -8.18505e-006
452
root  -41.2831 38.0255 28.4991 -175.01 -86.6852 -155.122
RightUpLeg  -60.7019 -12.6069 8.66652
RightLeg  30.8239 -8.04722 -5.39482
RightFoot  1.23042 0.339473 -3.0108
RightToes  0.00048216 0.542163 -0.142577
Spine  68.0885 -3.82142 5.96336
Spine1  12.6598 2.93278 -7.7966
HEad  -30.3263 -6.6275 4.66716
LeftShoulder1  5.16191 -26.3163 -9.85901
LeftArm  -91.1824 -66.7898 14.7237
LeftForeArm  53.212 -12.9111 7.44275
LeftHand  -0.25398 0.0180481 5.50724
RightShoulder  1.37648 12.0257 0.527749
RightArm  -78.831 70.7907 -21.0974
RightForeArm  -10.165 -5.53693 -0.796207
RightHand  -1.34938 4.9259 -15.4708
LeftUpLeg  -65.7269 24.3394 -27.6226
LeftLeg  29.7234 -2.10457 -0.950482
LeftFoot  -0.910915 -1.45004 15.8372
LeftToes  1.06246e-005 4.65855e-005 -8.18505e-006
453
root  -40.9026 38.2413 28.4045 -179.128 -86.4802 -153.363
RightUpLeg  -57.7886 -13.6969 9.38255
RightLeg  28.6008 -6.97612 -4.33642
RightFoot  2.22395 0.372835 -2.9989
RightToes  0.00048216 0.542163 -0.142577
Spine  66.5848 -3.37831 5.66934
Spine1  12.7833 2.88823 -7.3271
HEad  -29.6256 -6.65968 3.96561
LeftShoulder1  5.53329 -26.1174 -11.3733
LeftArm  -80.329 -65.9796 3.37645
LeftForeArm  52.0752 -13.9043 5.95223
LeftHand  -0.25398 0.0180481 5.50724
RightShoulder  1.64811 12.1565 2.4022
RightArm  -68.6614 71.7498 -9.15061
RightForeArm  -8.01542 -5.62504 -0.397168
RightHand  -1.42501 5.20546 -15.8838
LeftUpLeg  -62.9642 25.5546 -26.5306
LeftLeg  27.8171 -2.2674 -0.954215
LeftFoot  0.371434 -1.63486 15.8074
LeftToes  1.06246e-005 4.65855e-005 -8.18505e-006
